<svg xmlns="http://www.w3.org/2000/svg" viewBox="0 0 1440 900" preserveAspectRatio="xMidYMid slice">
  <g fill="none" stroke="#a78bfa" stroke-width="1.2">
    <!-- Oval cluster A: left side -->
    <path d="M220,420 C240,385 300,375 325,390 C350,405 352,440 336,460 C320,480 288,486 264,473 C240,460 212,448 220,420 Z"/>
    <path d="M194,420 C220,372 316,358 347,378 C378,398 381,447 361,473 C341,499 295,507 260,491 C225,475 183,462 194,420 Z"/>
    <path d="M167,420 C199,358 330,340 368,364 C406,388 410,453 386,485 C362,517 302,528 256,509 C210,490 152,476 167,420 Z"/>
    <path d="M140,418 C178,342 342,320 388,348 C434,376 438,458 411,496 C384,534 308,548 250,526 C192,504 118,490 140,418 Z"/>
    <path d="M112,416 C156,326 354,300 408,332 C462,364 467,464 436,508 C405,552 315,569 244,544 C173,519 85,502 112,416 Z"/>
    <path d="M82,413 C132,308 366,278 428,314 C490,350 497,470 462,520 C427,570 320,590 236,561 C152,532 48,514 82,413 Z"/>

    <!-- Oval cluster B: upper right -->
    <path d="M1060,185 C1078,158 1120,150 1142,164 C1164,178 1166,212 1150,232 C1134,252 1102,258 1080,245 C1058,232 1044,212 1060,185 Z"/>
    <path d="M1038,185 C1061,146 1132,134 1160,152 C1188,170 1192,216 1172,242 C1152,268 1110,277 1076,261 C1042,245 1017,222 1038,185 Z"/>
    <path d="M1015,185 C1043,136 1144,121 1178,143 C1212,165 1218,222 1194,254 C1170,286 1118,298 1072,278 C1026,258 990,232 1015,185 Z"/>
    <path d="M990,184 C1024,124 1155,106 1196,132 C1237,158 1244,228 1216,266 C1188,304 1126,318 1068,295 C1010,272 960,242 990,184 Z"/>

    <!-- Oval cluster C: lower center-right -->
    <path d="M870,640 C890,612 934,604 956,618 C978,632 980,666 963,686 C946,706 912,714 888,699 C864,684 850,664 870,640 Z"/>
    <path d="M848,640 C873,600 936,588 964,606 C992,624 996,668 975,694 C954,720 906,730 872,711 C838,692 820,676 848,640 Z"/>
    <path d="M824,639 C855,586 938,570 972,592 C1006,614 1011,670 986,702 C961,734 900,746 854,724 C808,702 788,688 824,639 Z"/>

    <!-- Flowing wavy contour lines -->
    <path d="M -100,25 C 220,0 480,55 740,28 S 1100,-5 1360,30 S 1560,50 1600,25"/>
    <path d="M -100,63 C 200,35 460,95 720,65 S 1080,28 1340,66 S 1545,88 1600,63"/>
    <path d="M -100,103 C 240,72 500,135 760,104 S 1120,64 1380,104 S 1580,128 1600,103"/>
    <path d="M -100,143 C 180,110 440,175 700,143 S 1060,100 1320,142 S 1520,166 1600,143"/>
    <path d="M -100,183 C 220,148 480,215 740,183 S 1100,138 1360,180 S 1560,206 1600,183"/>
    <path d="M -100,223 C 260,186 520,255 780,223 S 1140,175 1400,218 S 1598,245 1600,223"/>
    <path d="M -100,263 C 200,224 460,295 720,263 S 1080,212 1340,256 S 1540,284 1600,263"/>
    <path d="M -100,303 C 240,262 500,335 760,303 S 1120,250 1380,294 S 1580,324 1600,303"/>
    <path d="M -100,343 C 180,300 440,375 700,343 S 1060,288 1320,333 S 1520,363 1600,343"/>
    <path d="M -100,383 C 220,338 480,415 740,383 S 1100,326 1360,372 S 1560,402 1600,383"/>
    <path d="M -100,423 C 260,376 520,455 780,423 S 1140,364 1400,410 S 1598,442 1600,423"/>
    <path d="M -100,463 C 200,414 460,495 720,463 S 1080,402 1340,450 S 1540,481 1600,463"/>
    <path d="M -100,503 C 240,452 500,535 760,503 S 1120,440 1380,488 S 1580,521 1600,503"/>
    <path d="M -100,543 C 180,490 440,575 700,543 S 1060,478 1320,526 S 1520,561 1600,543"/>
    <path d="M -100,583 C 220,528 480,615 740,583 S 1100,516 1360,564 S 1560,601 1600,583"/>
    <path d="M -100,623 C 260,566 520,655 780,623 S 1140,554 1400,602 S 1598,641 1600,623"/>
    <path d="M -100,663 C 200,604 460,695 720,663 S 1080,592 1340,640 S 1540,681 1600,663"/>
    <path d="M -100,703 C 240,642 500,735 760,703 S 1120,630 1380,678 S 1580,721 1600,703"/>
    <path d="M -100,743 C 180,680 440,775 700,743 S 1060,668 1320,716 S 1520,761 1600,743"/>
    <path d="M -100,783 C 220,718 480,815 740,783 S 1100,706 1360,754 S 1560,801 1600,783"/>
    <path d="M -100,823 C 260,756 520,855 780,823 S 1140,744 1400,792 S 1598,841 1600,823"/>
    <path d="M -100,863 C 200,794 460,895 720,863 S 1080,782 1340,830 S 1540,881 1600,863"/>
  </g>
</svg>
